<svg xmlns="http://www.w3.org/2000/svg" viewBox="0 9.470000267028809 266.19000244140625 46.31999969482422" data-asc="0.9052734375" width="266.19000244140625" height="46.31999969482422"><defs/><g fill="#262425"><g transform="translate(0, 0)"><path d="M0 45.26L0 9.47L24.15 9.47L24.15 13.70L4.74 13.70L4.74 24.78L21.53 24.78L21.53 29.00L4.74 29.00L4.74 45.26L0 45.26ZM29.69 45.26L29.69 19.34L33.64 19.34L33.64 23.27Q35.16 20.51 36.44 19.63Q37.72 18.75 39.26 18.75Q41.48 18.75 43.77 20.17L42.26 24.24Q40.65 23.29 39.04 23.29Q37.60 23.29 36.45 24.16Q35.30 25.02 34.81 26.56Q34.08 28.91 34.08 31.69L34.08 45.26L29.69 45.26ZM64.14 36.91L68.68 37.48Q67.60 41.46 64.70 43.65Q61.79 45.85 57.28 45.85Q51.59 45.85 48.25 42.35Q44.92 38.84 44.92 32.52Q44.92 25.98 48.29 22.36Q51.66 18.75 57.03 18.75Q62.23 18.75 65.53 22.29Q68.82 25.83 68.82 32.25Q68.82 32.64 68.80 33.42L49.46 33.42Q49.71 37.70 51.88 39.97Q54.05 42.24 57.30 42.24Q59.72 42.24 61.43 40.97Q63.13 39.70 64.14 36.91M49.71 29.81L64.18 29.81Q63.89 26.54 62.52 24.90Q60.42 22.36 57.08 22.36Q54.05 22.36 51.99 24.39Q49.93 26.42 49.71 29.81ZM72.44 37.52L76.78 36.84Q77.15 39.45 78.82 40.84Q80.49 42.24 83.50 42.24Q86.52 42.24 87.99 41.00Q89.45 39.77 89.45 38.11Q89.45 36.62 88.16 35.77Q87.26 35.18 83.67 34.28Q78.83 33.06 76.97 32.17Q75.10 31.27 74.13 29.70Q73.17 28.13 73.17 26.22Q73.17 24.49 73.96 23.01Q74.76 21.53 76.12 20.56Q77.15 19.80 78.92 19.27Q80.69 18.75 82.71 18.75Q85.77 18.75 88.07 19.63Q90.38 20.51 91.48 22.01Q92.58 23.51 92.99 26.03L88.70 26.61Q88.40 24.61 87.00 23.49Q85.60 22.36 83.03 22.36Q80.00 22.36 78.71 23.36Q77.42 24.37 77.42 25.71Q77.42 26.56 77.95 27.25Q78.49 27.95 79.64 28.42Q80.30 28.66 83.52 29.54Q88.18 30.79 90.03 31.58Q91.87 32.37 92.92 33.89Q93.97 35.40 93.97 37.65Q93.97 39.84 92.69 41.78Q91.41 43.73 88.99 44.79Q86.57 45.85 83.52 45.85Q78.47 45.85 75.82 43.75Q73.17 41.65 72.44 37.52ZM99.19 45.26L99.19 9.47L103.59 9.47L103.59 22.31Q106.67 18.75 111.35 18.75Q114.23 18.75 116.36 19.89Q118.48 21.02 119.40 23.02Q120.31 25.02 120.31 28.83L120.31 45.26L115.92 45.26L115.92 28.83Q115.92 25.54 114.49 24.04Q113.06 22.53 110.45 22.53Q108.50 22.53 106.77 23.55Q105.05 24.56 104.32 26.29Q103.59 28.03 103.59 31.08L103.59 45.26L99.19 45.26ZM126.90 45.26L126.90 9.47L131.30 9.47L131.30 45.26L126.90 45.26ZM137.92 55.25L137.43 51.12Q138.87 51.51 139.94 51.51Q141.41 51.51 142.29 51.03Q143.16 50.54 143.73 49.66Q144.14 49.00 145.07 46.39Q145.19 46.02 145.46 45.31L135.62 19.34L140.36 19.34L145.75 34.35Q146.80 37.21 147.63 40.36Q148.39 37.33 149.44 34.45L154.98 19.34L159.38 19.34L149.51 45.70Q147.92 49.98 147.05 51.59Q145.87 53.76 144.36 54.77Q142.85 55.79 140.75 55.79Q139.48 55.79 137.92 55.25ZM163.67 45.26L163.67 9.47L176.00 9.47Q180.18 9.47 182.37 9.99Q185.45 10.69 187.62 12.55Q190.45 14.94 191.86 18.66Q193.26 22.39 193.26 27.17Q193.26 31.25 192.31 34.40Q191.36 37.55 189.87 39.61Q188.38 41.67 186.61 42.86Q184.84 44.04 182.34 44.65Q179.83 45.26 176.59 45.26L163.67 45.26M168.41 41.04L176.05 41.04Q179.59 41.04 181.60 40.38Q183.62 39.72 184.81 38.53Q186.50 36.84 187.44 34.00Q188.38 31.15 188.38 27.10Q188.38 21.48 186.54 18.47Q184.69 15.45 182.06 14.43Q180.15 13.70 175.93 13.70L168.41 13.70L168.41 41.04ZM199.17 45.26L199.17 19.34L203.13 19.34L203.13 23.27Q204.64 20.51 205.92 19.63Q207.20 18.75 208.74 18.75Q210.96 18.75 213.26 20.17L211.74 24.24Q210.13 23.29 208.52 23.29Q207.08 23.29 205.93 24.16Q204.79 25.02 204.30 26.56Q203.56 28.91 203.56 31.69L203.56 45.26L199.17 45.26ZM214.23 32.30Q214.23 25.10 218.24 21.63Q221.58 18.75 226.39 18.75Q231.74 18.75 235.13 22.25Q238.53 25.76 238.53 31.93Q238.53 36.94 237.02 39.81Q235.52 42.68 232.65 44.26Q229.79 45.85 226.39 45.85Q220.95 45.85 217.59 42.36Q214.23 38.87 214.23 32.30M218.75 32.30Q218.75 37.28 220.92 39.76Q223.10 42.24 226.39 42.24Q229.66 42.24 231.84 39.75Q234.01 37.26 234.01 32.15Q234.01 27.34 231.82 24.87Q229.64 22.39 226.39 22.39Q223.10 22.39 220.92 24.85Q218.75 27.32 218.75 32.30ZM243.68 55.20L243.68 19.34L247.68 19.34L247.68 22.71Q249.10 20.73 250.88 19.74Q252.66 18.75 255.20 18.75Q258.52 18.75 261.06 20.46Q263.60 22.17 264.89 25.28Q266.19 28.39 266.19 32.10Q266.19 36.08 264.76 39.27Q263.33 42.46 260.61 44.15Q257.89 45.85 254.88 45.85Q252.69 45.85 250.94 44.92Q249.19 43.99 248.07 42.58L248.07 55.20L243.68 55.20M247.66 32.45Q247.66 37.45 249.68 39.84Q251.71 42.24 254.59 42.24Q257.52 42.24 259.61 39.76Q261.69 37.28 261.69 32.08Q261.69 27.12 259.66 24.66Q257.62 22.19 254.79 22.19Q251.98 22.19 249.82 24.82Q247.66 27.44 247.66 32.45Z"/></g></g></svg>